<?xml version="1.0"?>
<svg xmlns="http://www.w3.org/2000/svg" viewBox="0 0 24 24">
  <g stroke-linecap="round" stroke-width="1.5" stroke="#7357F6" fill="none" stroke-linejoin="round">
    <path d="M14.04 9.96l-2.51 2.51"/>
    <path d="M14 6l0 4 4 0 4-4 -2.67-1.34 -1.34-2.67 -4 4Z"/>
    <path d="M11 3.97v0c-4.7.28-8.28 4.32-7.99 9.02 .28 4.69 4.32 8.27 9.02 7.98 4.29-.27 7.71-3.69 7.98-7.99"/>
    <path d="M16.21 13v0c-.29 2.59-2.62 4.46-5.21 4.18 -2.6-.29-4.47-2.62-4.19-5.21 .24-2.21 1.98-3.95 4.18-4.19"/>
  </g>
  <path fill="none" d="M0 0h24v24H0Z"/>
</svg>
