<?xml version="1.0"?>
<svg xmlns="http://www.w3.org/2000/svg" viewBox="0 0 24 24">
  <g stroke-linecap="round" stroke-width="1.5" stroke="#7357F6" fill="none" stroke-linejoin="round">
    <path d="M16.71 7.92h-.001c.89-.3 1.87.07 2.35.88l1.65 2.82v-.001c.55.95.23 2.17-.72 2.73 -.01 0-.02 0-.02.01 -2.55 1.44-6.48 3.69-10.06 5.72v0c-1.01.57-2.16.87-3.32.87v0"/>
    <path d="M5 3h3v0c1.1 0 2 .89 2 2v12.5 0c0 1.93-1.57 3.5-3.5 3.5v0 0C4.56 21 3 19.43 3 17.5V5v0c0-1.11.89-2 2-2Z"/>
    <path d="M6.5 21v0 0c1.66 0 3.21-.89 4.05-2.33 2.125-3.64 4.4-7.53 5.95-10.18V8.48c.55-.96.23-2.18-.72-2.74 -.01-.01-.02-.01-.02-.02l-2.89-1.65v0c-.96-.55-2.17-.22-2.72.72l-.17.28"/>
    <path d="M6.75 17.5v0c-.01.13-.12.24-.26.24 -.14-.01-.25-.12-.25-.26s.11-.25.24-.25v0c.13-.01.25.11.25.24 0 0 0 0 0 0"/>
  </g>
  <path fill="none" d="M0 0h24v24H0Z" transform="translate(24 24) skewY(.00057) scale(-1)"/>
</svg>
