<?xml version="1.0"?>
<svg xmlns="http://www.w3.org/2000/svg" viewBox="0 0 24 24">
  <g stroke-linecap="round" stroke-width="1.5" stroke="#7357F6" fill="none" stroke-linejoin="round">
    <path d="M17.09 12.12l-5.4 4.31h-.001c-.4.31-.98.28-1.34-.08l-2.74-2.74v0c-.37-.37-.4-.94-.08-1.34l4.31-5.4v0c1.97-2.47 4.96-3.91 8.12-3.91v0 0c.55 0 1 .44 1 1v0h-.001c0 3.16-1.44 6.14-3.91 8.12Z"/>
    <path d="M16 13v4.38h-.001c-.01.37-.22.72-.56.89l-2.42 1.2v0c-.5.24-1.1.04-1.35-.45 -.03-.05-.04-.09-.06-.14l-.64-1.91"/>
    <path d="M7 13l-1.91-.64v0c-.53-.18-.81-.75-.64-1.27 .01-.05.03-.09.05-.14l1.2-2.42h0c.16-.34.51-.56.89-.56h4.38"/>
    <path d="M5.75 20.58l-2.76.41 .41-2.76H3.39c.13-.9.83-1.6 1.72-1.73v0 -.001c1.12-.17 2.16.6 2.33 1.72 .03.2.03.4-.001.61v0l0-.001c-.14.89-.84 1.59-1.73 1.72Z"/>
  </g>
  <path fill="none" d="M0 0h24v24H0Z"/>
</svg>
