<?xml version="1.0"?>
<svg xmlns="http://www.w3.org/2000/svg" viewBox="0 0 24 24">
  <g fill="none">
    <path d="M0 0h24v24H0Z"/>
    <g stroke-linecap="round" stroke-width="1.5" stroke="#7357F6" fill="none" stroke-linejoin="round">
      <path d="M17.332 6.58l-2.3 2.29 -1.38-1.375"/>
      <path d="M16 12.97v0c3.02-.28 5.25-2.96 4.97-5.98 -.28-3.03-2.96-5.26-5.98-4.98 -2.84.25-5 2.63-5 5.47 0 .16.01.33.02.5"/>
      <rect width="3" height="6.187" x="3" y="14.812" rx=".5"/>
      <path d="M6.09 19.67l1.21 1 0-.001c.25.2.57.32.89.32h4.08v0c.66-.01 1.25-.45 1.44-1.09l.69-2.43v0c.25-.9-.27-1.84-1.16-2.09 -.16-.05-.31-.07-.47-.07h-1.82"/>
      <path d="M11 15.33v-1.67 -.001c0-.93-.75-1.67-1.67-1.67 -.58-.01-1.12.3-1.43.79l-1.92 3.11"/>
    </g>
  </g>
</svg>
